<svg width="42" height="42" viewBox="0 0 42 42" fill="none" xmlns="http://www.w3.org/2000/svg">
<path fill-rule="evenodd" clip-rule="evenodd" d="M6 0C4.4087 0 2.88258 0.632141 1.75736 1.75736C0.632141 2.88258 0 4.4087 0 6V36C0 37.5913 0.632141 39.1174 1.75736 40.2426C2.88258 41.3679 4.4087 42 6 42H36C37.5913 42 39.1174 41.3679 40.2426 40.2426C41.3679 39.1174 42 37.5913 42 36V6C42 4.4087 41.3679 2.88258 40.2426 1.75736C39.1174 0.632141 37.5913 0 36 0H6ZM9.306 12.891C10.2568 12.891 11.1687 12.5133 11.841 11.841C12.5133 11.1687 12.891 10.2568 12.891 9.306C12.891 8.3552 12.5133 7.44334 11.841 6.77102C11.1687 6.0987 10.2568 5.721 9.306 5.721C8.3552 5.721 7.44334 6.0987 6.77102 6.77102C6.0987 7.44334 5.721 8.3552 5.721 9.306C5.721 10.2568 6.0987 11.1687 6.77102 11.841C7.44334 12.5133 8.3552 12.891 9.306 12.891ZM12.306 35.439V15.702H6.306V35.439H12.306ZM16.29 15.702H22.29V18.345C23.175 16.959 25.119 15.093 28.734 15.093C33.048 15.093 35.391 17.952 35.391 23.391C35.391 23.652 35.415 24.843 35.415 24.843V35.436H29.415V24.846C29.415 23.391 29.109 20.532 25.875 20.532C22.638 20.532 22.365 24.126 22.29 26.478V35.436H16.29V15.702Z" fill="#F2A03D"/>
</svg>
